<?xml version="1.0" standalone="no"?>
<!DOCTYPE svg PUBLIC "-//W3C//DTD SVG 20010904//EN"
 "http://www.w3.org/TR/2001/REC-SVG-20010904/DTD/svg10.dtd">
<svg version="1.0" xmlns="http://www.w3.org/2000/svg"
 width="1667.000000pt" height="1667.000000pt" viewBox="0 0 1667.000000 1667.000000"
 preserveAspectRatio="xMidYMid meet">
<metadata>
Created by potrace 1.14, written by Peter Selinger 2001-2017
</metadata>
<g transform="translate(0.000000,1667.000000) scale(0.100000,-0.100000)"
fill="#000000" stroke="none">
<path d="M6361 12470 l-903 -5 -759 -2493 c-417 -1371 -760 -2500 -761 -2509
-3 -16 55 -17 786 -14 l789 3 -7 -454 c-3 -249 -9 -978 -12 -1621 l-7 -1167
1034 2 1034 3 0 1673 0 1672 330 0 c451 0 559 -20 773 -143 314 -180 529 -461
859 -1119 62 -124 113 -228 113 -231 0 -3 20 -47 44 -98 24 -52 85 -188 136
-304 257 -585 372 -840 422 -940 117 -232 328 -404 598 -487 l75 -22 913 -4
c501 -1 912 0 912 2 0 3 -21 49 -46 103 -63 133 -120 254 -159 338 -18 39 -52
111 -75 160 -47 101 -228 490 -267 575 -14 30 -80 172 -145 315 -66 143 -165
359 -220 480 -55 121 -115 253 -134 293 -19 41 -34 76 -34 79 0 12 -195 400
-250 498 -280 495 -562 821 -847 977 l-76 41 59 30 c775 385 1207 913 1325
1617 29 172 32 531 5 710 -75 503 -295 924 -681 1299 -198 192 -388 327 -624
446 -349 175 -749 274 -1171 291 -196 8 -1916 10 -3029 4z m2604 -1543 c119
-23 225 -53 299 -85 300 -128 461 -354 495 -692 49 -494 -169 -846 -616 -996
-188 -63 -223 -66 -758 -71 -269 -2 -758 0 -1086 4 l-595 8 380 850 c210 468
397 886 417 930 l36 80 669 -5 c578 -5 681 -8 759 -23z"/>
</g>
</svg>
